<?xml version="1.0" standalone="no"?>
<!DOCTYPE svg PUBLIC "-//W3C//DTD SVG 20010904//EN"
 "http://www.w3.org/TR/2001/REC-SVG-20010904/DTD/svg10.dtd">
<svg version="1.0" xmlns="http://www.w3.org/2000/svg"
 width="700.000000pt" height="700.000000pt" viewBox="0 0 700.000000 700.000000"
 preserveAspectRatio="xMidYMid meet">
<metadata>
Created by potrace 1.11, written by Peter Selinger 2001-2013
</metadata>
<g transform="translate(0.000000,700.000000) scale(0.100000,-0.100000)"
fill="#000000" stroke="none">
<path d="M2751 6976 c-12 -12 -25 -36 -30 -53 l-9 -30 59 -7 c70 -7 116 -25
150 -57 82 -80 66 -206 -40 -320 -23 -24 -41 -41 -42 -39 -11 69 -62 171 -134
266 -45 60 -122 124 -150 124 -26 0 -55 -33 -55 -65 0 -11 -12 -42 -25 -70
-14 -27 -25 -65 -25 -84 0 -49 56 -98 155 -136 128 -49 151 -80 100 -137 -44
-51 -92 -77 -123 -68 -68 19 -136 64 -209 138 -123 123 -138 252 -37 329 l36
27 -33 28 c-71 59 -153 54 -213 -13 -64 -70 -61 -155 7 -222 l42 -42 -225 1
c-124 0 -247 4 -275 8 -61 9 -150 48 -173 76 -16 19 -18 20 -40 4 -30 -21 -26
-60 8 -86 14 -10 84 -41 154 -68 141 -54 176 -73 176 -95 0 -27 -61 -55 -120
-55 -80 0 -124 -16 -159 -56 -44 -49 -43 -102 1 -139 29 -25 38 -27 85 -21 51
6 102 23 104 35 8 74 24 100 87 139 114 72 312 89 312 26 0 -7 -18 -34 -40
-59 -22 -25 -40 -50 -40 -54 0 -13 -53 -68 -76 -79 -11 -6 -60 -18 -110 -27
-49 -9 -104 -23 -123 -31 -39 -16 -191 -166 -191 -188 0 -20 20 -24 157 -30
153 -7 202 -30 208 -96 1 -17 18 -54 37 -83 18 -29 33 -58 32 -64 -1 -7 -2
-17 -3 -23 -3 -29 -144 23 -242 90 -43 29 -69 40 -96 40 -20 0 -56 9 -79 20
-49 24 -78 76 -89 159 -8 61 -39 158 -59 180 -7 9 -21 40 -31 70 -18 57 -53
101 -79 101 -16 0 -50 -43 -66 -84 -43 -113 -28 -276 31 -332 l28 -27 -31 -24
c-18 -12 -40 -23 -50 -23 -23 0 -54 34 -81 89 -12 25 -37 60 -56 79 -19 19
-45 56 -58 82 -45 91 -127 97 -204 13 -94 -99 -151 -273 -119 -357 9 -25 -2
-37 -15 -16 -3 5 -29 16 -56 24 -44 13 -55 14 -84 2 -40 -17 -54 -41 -59 -101
-6 -61 16 -139 56 -197 35 -51 40 -54 103 -63 91 -12 106 -17 102 -28 -2 -7
-41 -32 -86 -57 -141 -77 -180 -118 -199 -215 -6 -28 -15 -67 -21 -89 -11 -45
-6 -66 18 -66 31 0 101 93 101 134 0 29 66 82 126 100 32 10 53 -16 47 -56 -7
-52 -48 -130 -88 -170 -36 -37 -48 -42 -91 -39 -27 3 -91 -24 -118 -47 -67
-60 -121 -204 -94 -254 14 -28 54 -21 97 17 30 27 47 35 77 35 135 0 189 64
250 295 14 55 34 118 43 140 36 81 97 116 176 101 40 -8 141 22 338 98 115 44
229 84 263 90 10 2 45 11 77 19 88 23 253 17 339 -13 73 -24 74 -26 82 -110
10 -98 50 -204 95 -253 17 -19 26 -41 28 -69 4 -80 57 -98 158 -54 37 17 55
31 55 43 0 10 9 37 20 61 38 85 116 75 213 -27 77 -80 151 -196 143 -224 -9
-34 -30 -56 -67 -71 -65 -26 -171 0 -357 90 -185 89 -182 88 -259 88 -89 1
-100 11 -171 141 -40 75 -53 91 -75 93 -31 4 -35 -13 -13 -56 28 -56 76 -212
78 -252 3 -72 -28 -74 -123 -10 -30 21 -70 41 -87 45 -18 3 -48 21 -67 39 -31
29 -33 35 -26 68 10 43 29 71 123 181 73 86 108 143 108 176 0 29 -39 66 -87
84 -39 15 -43 15 -66 -3 -14 -11 -42 -57 -63 -102 -81 -172 -99 -203 -121
-206 -18 -3 -25 8 -48 67 -31 82 -83 141 -101 116 -6 -8 -16 -58 -22 -111 -6
-54 -18 -107 -27 -121 -21 -31 -55 -27 -73 9 -35 75 -157 121 -252 95 -70 -18
-90 -64 -47 -110 32 -35 82 -58 162 -74 239 -49 554 -200 543 -261 -3 -18 -74
-56 -142 -76 -61 -19 -173 -19 -240 -1 -144 38 -295 160 -355 288 -27 57 -36
67 -57 67 -35 0 -80 -47 -95 -101 -19 -65 -17 -193 5 -264 22 -73 87 -144 132
-146 49 -2 67 2 122 26 94 43 219 55 206 20 -16 -41 -172 -110 -274 -121 -55
-6 -111 11 -295 92 -93 40 -213 66 -310 67 -92 2 -105 -1 -166 -30 -82 -38
-144 -93 -160 -140 -14 -44 -7 -94 32 -206 27 -78 29 -95 23 -161 -6 -71 -5
-76 19 -100 30 -29 62 -33 112 -12 104 44 172 156 136 224 -15 28 -20 94 -9
121 22 60 92 94 193 94 87 0 183 -27 226 -62 27 -23 31 -32 25 -54 -8 -32 -47
-54 -164 -90 -179 -56 -285 -144 -360 -300 -79 -165 -151 -519 -128 -632 3
-11 5 -23 5 -27 2 -16 18 -7 28 15 12 26 54 230 79 380 5 30 11 37 30 37 35 0
70 -19 84 -46 21 -39 18 -99 -12 -242 -47 -220 -28 -314 72 -354 14 -6 66 -18
115 -27 144 -26 201 -7 189 66 -10 63 -66 166 -119 221 -67 68 -103 134 -119
221 -34 177 56 360 233 473 14 9 42 30 61 48 53 47 90 65 102 48 9 -12 4 -135
-7 -188 -75 -361 -41 -596 115 -783 82 -99 179 -158 321 -196 41 -11 99 -31
129 -45 68 -32 90 -33 90 -5 0 27 -13 51 -72 132 -33 44 -52 80 -54 105 -13
111 -50 195 -116 264 -49 51 -152 121 -204 138 -20 7 -34 18 -35 28 -5 103 -3
147 9 207 42 212 204 429 442 594 36 25 83 64 106 87 37 38 88 62 165 80 53
12 218 12 271 -1 140 -32 161 -91 57 -158 -37 -24 -66 -34 -98 -36 -55 -2
-140 -25 -196 -53 -44 -22 -130 -90 -158 -125 -10 -13 -24 -29 -30 -36 -23
-23 -76 -113 -116 -197 -36 -73 -39 -85 -25 -93 15 -8 105 -4 184 8 89 15 424
128 437 148 3 6 8 28 9 50 7 88 55 191 117 248 119 110 329 127 470 37 184
-117 233 -356 231 -1128 0 -251 -4 -334 -17 -409 -30 -165 -95 -293 -211 -418
-151 -163 -293 -223 -741 -312 -137 -28 -286 -61 -330 -75 -44 -15 -93 -26
-110 -26 -46 0 -125 -42 -177 -93 -27 -25 -73 -86 -104 -134 -116 -182 -149
-225 -198 -250 -55 -28 -68 -25 -121 28 -75 76 -125 80 -125 11 0 -53 52 -154
101 -196 99 -84 217 -66 338 53 61 60 63 63 174 217 88 124 132 173 196 220
83 59 141 74 298 76 76 0 153 4 173 8 19 4 69 13 110 20 41 7 91 16 110 21 44
10 151 21 207 20 84 -1 153 -55 153 -121 0 -55 -164 -122 -293 -121 -92 0
-129 5 -312 41 -233 45 -297 42 -391 -21 -66 -45 -112 -113 -206 -304 -73
-150 -91 -178 -150 -239 -38 -37 -68 -69 -68 -71 0 -9 57 -11 86 -4 49 14 97
69 160 183 112 200 135 235 176 270 52 45 101 59 198 58 79 0 112 -10 420
-118 120 -42 145 -47 221 -48 77 0 93 3 150 31 35 18 90 57 122 88 32 31 75
63 95 72 35 14 37 14 55 -8 14 -18 18 -34 14 -64 -12 -85 -72 -155 -149 -175
-24 -6 -65 -18 -93 -26 -102 -30 -138 -32 -580 -23 -99 1 -198 0 -219 -4 -150
-28 -250 -87 -335 -197 -19 -25 -55 -66 -79 -93 -101 -111 1 -124 110 -13 93
93 203 130 388 129 68 0 107 -4 220 -18 19 -2 94 -7 165 -11 72 -4 131 -8 133
-9 10 -9 7 -65 -5 -90 -66 -139 -469 -151 -630 -19 l-43 35 0 -33 c0 -19 11
-57 25 -85 80 -161 305 -276 508 -260 79 6 119 19 157 53 33 29 100 64 123 64
23 0 58 -18 75 -39 7 -9 39 -70 71 -136 58 -119 101 -178 145 -194 41 -16 153
-24 161 -12 4 7 -20 48 -56 94 -92 122 -99 143 -95 273 2 60 9 121 16 136 27
57 93 59 234 6 163 -60 218 -77 271 -83 54 -7 95 0 95 14 0 32 -136 120 -209
136 -172 37 -249 181 -200 374 40 155 135 261 235 261 46 0 123 -44 122 -69
-1 -15 2 -38 18 -171 9 -81 36 -179 51 -192 12 -10 18 -8 33 12 10 14 24 44
31 68 15 55 25 60 58 28 24 -24 26 -34 27 -109 1 -45 -5 -120 -11 -166 -14
-94 -11 -134 12 -170 15 -24 16 -24 30 -5 29 38 64 120 79 184 10 45 15 112
13 220 -1 184 0 282 5 287 1 2 22 -23 46 -56 41 -56 87 -149 96 -195 54 -260
-14 -507 -181 -665 -53 -50 -122 -90 -156 -91 -60 -1 -265 -157 -307 -235 -19
-36 -21 -45 -10 -67 18 -37 70 -33 216 17 395 134 543 240 609 433 18 55 22
83 19 159 l-4 92 31 -37 c180 -209 398 -336 597 -349 138 -9 287 36 322 97 37
65 107 89 313 106 94 7 140 24 148 53 4 16 0 21 -16 22 -77 4 -120 10 -138 20
-20 10 -20 11 -2 31 10 12 78 50 151 85 72 35 143 75 156 88 30 30 76 90 76
98 0 15 -46 5 -138 -30 -165 -63 -212 -72 -295 -57 -165 29 -150 44 103 109
79 20 160 44 180 52 25 11 74 17 168 19 138 3 205 9 224 20 13 8 -24 29 -71
39 -18 4 -63 22 -100 41 -115 58 -214 57 -435 -7 -261 -75 -359 -70 -485 24
-120 89 -202 98 -491 51 -227 -37 -310 8 -389 213 -23 58 -41 109 -41 114 0
19 28 7 120 -55 52 -35 106 -67 120 -71 14 -4 50 -20 81 -36 93 -47 166 -59
319 -54 74 2 146 6 160 9 13 3 42 8 65 11 22 4 51 8 65 10 190 27 285 24 430
-17 111 -31 170 -25 170 17 0 28 -54 56 -117 61 -44 3 -128 26 -170 46 -73 36
77 34 187 -2 108 -36 160 -76 165 -127 7 -89 78 -136 201 -135 76 1 139 14
188 39 28 15 29 16 11 29 -10 8 -33 14 -50 14 -27 0 -37 8 -69 54 -48 69 -129
144 -230 210 -125 82 -488 261 -591 292 -420 124 -644 208 -730 273 -102 78
-227 211 -258 273 -54 107 -81 345 -81 703 0 240 4 303 25 480 21 168 35 222
84 312 126 231 362 361 515 283 45 -23 105 -81 133 -128 l18 -31 -53 -34
c-101 -66 -161 -150 -174 -246 -8 -55 20 -153 58 -209 29 -41 33 -56 34 -115
1 -38 6 -73 12 -79 6 -6 29 14 68 64 80 100 98 115 183 156 152 74 161 144 56
456 -53 157 -30 201 100 190 105 -10 363 -127 476 -217 144 -115 164 -253 58
-387 -37 -47 -42 -50 -58 -36 -61 55 -187 72 -265 36 -92 -44 -186 -174 -221
-306 -16 -60 -22 -185 -10 -203 3 -6 20 7 38 31 64 83 145 124 441 222 76 25
164 61 195 78 76 43 152 122 181 186 l24 53 14 -28 c8 -15 17 -58 20 -94 10
-147 -62 -216 -335 -319 -59 -23 -137 -56 -172 -73 -55 -27 -67 -38 -84 -76
-42 -95 8 -281 109 -401 20 -23 34 -30 53 -28 25 3 26 6 31 80 4 63 9 81 30
104 32 35 160 157 225 214 195 172 276 306 276 456 l0 53 44 -34 c48 -36 133
-72 198 -82 58 -9 230 -9 299 1 l58 7 -14 27 c-18 34 -38 51 -159 136 -106 74
-178 139 -201 185 -13 24 -23 29 -67 35 -125 17 -215 77 -431 290 -155 153
-166 165 -149 180 9 8 40 21 69 27 92 22 135 -2 257 -146 76 -89 96 -107 176
-155 59 -36 117 -52 120 -32 5 28 2 59 -15 144 -28 145 -20 152 108 87 178
-91 293 -205 368 -365 36 -77 43 -113 43 -219 0 -90 -27 -192 -54 -199 -9 -3
-33 -7 -53 -10 -154 -23 -289 -157 -300 -297 -2 -23 -13 -39 -43 -61 -87 -67
-110 -121 -57 -135 77 -19 209 3 307 52 36 18 65 31 65 27 0 -3 -26 -46 -58
-96 -126 -197 -164 -287 -164 -396 -1 -74 28 -153 68 -191 l24 -23 51 55 c28
30 70 74 93 99 148 157 197 308 140 427 l-25 52 42 62 c121 179 179 385 174
619 -4 191 -33 316 -121 523 -67 158 -86 181 -228 274 -174 113 -202 134 -219
162 -9 16 -14 37 -11 46 22 56 219 -59 395 -231 36 -35 70 -64 76 -64 26 0 47
42 49 103 5 114 -58 244 -142 293 -46 27 -118 37 -166 23 -38 -11 -44 -7 -23
15 40 40 76 162 78 266 1 61 -16 183 -40 275 -14 55 -27 127 -30 160 -10 133
-38 136 -166 23 -90 -81 -111 -96 -151 -113 -42 -18 -77 -8 -102 30 -9 14 -20
25 -25 25 -23 0 -47 -84 -64 -225 -13 -107 -46 -188 -95 -229 -28 -23 -128
-61 -137 -52 -3 2 14 37 36 78 51 93 100 240 108 321 11 121 -37 216 -136 266
-22 12 -44 21 -50 21 -5 0 -8 -85 -7 -207 1 -198 0 -210 -22 -255 -13 -25 -29
-49 -37 -52 -8 -3 -15 -4 -15 -3 0 1 7 34 15 72 23 113 15 253 -22 346 -35 90
-88 171 -163 252 l-55 60 119 -7 c65 -3 121 -8 125 -10 3 -2 22 -7 41 -10 94
-15 225 -69 300 -124 46 -34 104 -96 139 -149 l29 -43 5 28 c11 55 -1 134 -29
188 -53 105 -194 222 -334 277 -91 35 -122 40 -172 26 -70 -19 -225 -19 -286
0 -166 51 -194 177 -85 376 36 66 20 147 -43 212 -44 47 -86 57 -103 25 -5 -9
-9 -56 -8 -102 1 -90 -9 -160 -22 -160 -4 0 -22 34 -40 75 -37 84 -70 125
-101 125 -13 0 -40 -19 -64 -44 -38 -38 -51 -45 -110 -55 -112 -20 -216 13
-216 68 0 33 75 104 151 145 89 47 109 63 109 88 0 42 -141 63 -248 36 -82
-20 -152 -76 -152 -120 0 -23 -19 -23 -27 0 -12 33 -91 138 -137 180 -154 142
-384 209 -546 160 -34 -11 -59 -23 -54 -28 5 -4 47 -15 94 -24 125 -25 211
-54 243 -84 15 -14 27 -30 27 -35 0 -5 55 -64 123 -131 149 -147 172 -187 171
-296 0 -64 -5 -86 -35 -150 -38 -80 -63 -110 -79 -94 -12 12 -35 101 -44 169
-6 47 -13 94 -21 140 -7 44 -26 101 -40 119 -13 17 -18 18 -40 6 -14 -7 -25
-17 -25 -21 0 -5 -25 -33 -55 -64 -30 -30 -56 -63 -56 -73 -1 -9 -2 -24 -3
-32 -3 -25 23 -82 68 -150 62 -93 76 -124 76 -168 0 -31 -4 -41 -19 -45 -24
-6 -78 29 -108 70 -65 89 -114 277 -109 420 2 75 6 89 49 175 26 51 47 103 47
115 0 37 -40 74 -87 80 -31 4 -50 0 -80 -17 -62 -34 -74 -64 -76 -184 -2 -108
-12 -136 -48 -136 -27 0 -66 58 -83 123 -15 59 -14 125 4 172 6 14 10 49 10
76 0 134 -135 112 -185 -30 -16 -45 -15 -42 -15 -71 0 -13 -10 -25 -27 -32
-40 -17 -73 -49 -73 -70 0 -10 38 -58 85 -107 84 -86 121 -130 114 -135 -2 -2
-42 -11 -89 -21 -182 -39 -218 -25 -154 62 31 40 12 49 -45 21 -43 -21 -108
-96 -178 -205 -62 -95 -168 -318 -198 -413 -36 -114 -66 -194 -82 -217 -20
-27 -32 -1 -22 50 4 23 10 59 13 81 4 21 8 42 11 46 3 4 8 25 11 46 8 51 65
226 94 286 12 26 58 84 103 130 85 87 116 129 266 358 49 74 99 146 112 160
61 68 60 66 49 94 -24 65 -88 49 -245 -63 -60 -44 -113 -77 -117 -75 -3 2 5
24 19 49 l25 45 -27 0 c-15 0 -78 20 -141 45 -143 57 -192 64 -223 31z m444
-333 c-30 -56 -89 -128 -78 -98 10 31 90 145 101 145 2 0 -8 -21 -23 -47z
m1936 -432 c4 0 14 -17 23 -36 13 -26 14 -40 6 -54 -21 -40 -129 -39 -222 1
-61 26 -66 59 -14 79 27 11 167 18 207 10z m-1368 -32 c21 -17 46 -47 56 -67
34 -67 84 -290 91 -407 6 -108 0 -250 -14 -320 -3 -11 -5 -27 -6 -35 -4 -58
-57 140 -64 240 -18 251 -41 346 -106 450 -33 51 -56 129 -47 153 10 26 49 20
90 -14z m-1474 -55 c2 -10 16 -34 32 -52 32 -36 38 -84 15 -114 -17 -23 -77
-48 -114 -48 -59 0 -68 45 -21 110 17 24 38 63 46 87 15 44 35 52 42 17z
m1031 -55 c-16 -86 -66 -174 -140 -248 -80 -79 -114 -131 -127 -192 -19 -88
-2 -154 83 -335 88 -189 107 -269 84 -364 -18 -74 -55 -84 -107 -29 -55 60
-135 299 -178 532 l-16 87 32 93 c89 255 204 428 325 490 27 14 50 24 52 23 1
-2 -2 -27 -8 -57z m271 32 c4 -96 -16 -183 -65 -286 -56 -120 -129 -181 -221
-185 -66 -3 -67 -3 -54 22 7 13 17 28 23 34 139 144 191 235 179 314 -6 47
-11 52 -34 40 -25 -14 -37 -6 -18 12 39 37 123 75 167 75 17 0 22 -5 23 -26z
m1199 -120 c25 -4 64 -7 87 -7 58 1 41 -10 -50 -34 -118 -30 -158 -33 -173
-12 -17 22 -18 59 -2 64 15 5 74 0 138 -11z m-2608 -246 c50 -2 74 -15 134
-67 64 -56 154 -192 154 -233 0 -32 -54 -8 -123 56 -10 10 -35 20 -55 24 -68
13 -205 88 -269 149 -60 55 -33 90 62 79 28 -3 71 -6 97 -8z m3082 -84 c33
-11 76 -32 97 -45 20 -14 56 -28 80 -31 49 -7 98 -30 116 -54 18 -23 16 -72
-8 -164 -11 -44 -20 -105 -20 -135 0 -46 4 -60 30 -91 78 -91 96 -184 54 -266
-40 -78 -172 -171 -268 -190 -85 -16 -125 -18 -125 -4 0 8 34 77 76 154 129
241 160 315 177 425 16 107 17 136 3 155 -13 18 -15 17 -55 -14 -35 -28 -181
-230 -181 -250 0 -6 -32 -7 -68 -3 -7 1 -17 14 -23 28 -19 50 27 163 100 246
30 34 32 54 17 126 -12 53 -39 42 -103 -45 -146 -200 -161 -211 -305 -208 -54
1 -101 4 -104 8 -9 9 76 45 135 58 75 16 76 17 56 39 -63 70 -206 63 -371 -16
-116 -56 -206 -129 -277 -224 -69 -92 -130 -141 -149 -122 -29 29 60 230 153
349 86 111 341 238 558 280 14 3 46 9 71 13 81 16 268 5 334 -19z m-1728 -131
c109 -124 141 -178 160 -275 7 -33 19 -78 28 -100 41 -108 -5 -240 -127 -365
-98 -100 -166 -160 -171 -151 -10 15 12 56 101 195 45 71 96 156 113 190 34
71 50 134 31 122 -7 -4 -30 -9 -52 -11 -88 -7 -128 90 -136 330 -4 137 -4 139
14 115 9 -14 27 -36 39 -50z m-2094 27 l40 -10 -41 -14 c-23 -8 -58 -25 -78
-39 -24 -16 -43 -22 -57 -18 -12 4 -34 7 -49 6 -27 -1 -111 -28 -132 -42 -21
-15 -127 -50 -149 -50 -32 0 -72 34 -81 67 -5 22 -2 32 15 45 24 20 104 45
178 58 68 11 306 9 354 -3z m5135 -375 c-6 -61 -25 -105 -80 -189 -146 -226
-422 -399 -702 -441 -46 -7 -55 -7 -41 2 125 74 166 111 428 383 103 107 187
170 265 199 27 9 65 34 87 56 21 21 41 38 43 38 3 0 3 -22 0 -48z m-4304 11
c26 -9 47 -20 47 -24 0 -4 -13 -21 -30 -39 -16 -17 -42 -58 -58 -92 l-28 -61
-23 39 c-31 52 -51 109 -46 133 12 64 49 76 138 44z m2702 -53 c139 -35 180
-91 131 -175 -32 -54 -92 -104 -180 -150 -68 -35 -106 -44 -106 -25 0 21 75
88 113 101 50 17 109 72 101 92 -10 26 -74 41 -174 40 -154 -1 -265 -51 -311
-140 -41 -80 -225 -250 -246 -229 -13 12 40 97 93 150 28 28 75 80 105 116
186 225 282 269 474 220z m1042 -1703 c-6 -45 -45 -130 -46 -100 -1 23 37 133
46 133 2 0 3 -15 0 -33z m759 -151 c3 -8 -1 -25 -9 -38 -8 -13 -23 -49 -32
-80 -10 -32 -21 -58 -25 -58 -10 0 8 115 24 155 16 37 33 45 42 21z m-2176
-1489 c19 -5 52 -21 74 -34 21 -14 79 -35 130 -48 50 -13 105 -28 123 -34 39
-11 115 -55 136 -79 15 -16 7 -17 -141 -18 -86 0 -227 -2 -312 -4 -143 -3
-159 -2 -206 19 -117 51 -98 145 38 192 58 20 105 22 158 6z m970 -706 c0 -12
-207 -72 -293 -85 -60 -9 -35 10 51 38 126 42 242 65 242 47z m-1025 -85 c162
-7 320 -40 377 -80 24 -17 156 -217 163 -248 7 -26 4 -28 -52 -44 -60 -18
-185 -24 -238 -12 -83 19 -163 56 -255 118 -85 58 -279 242 -273 259 3 6 107
17 133 14 8 -1 74 -4 145 -7z"/>
</g>
</svg>
