<svg xmlns="http://www.w3.org/2000/svg" viewBox="0 0 100.00001 99.975138" height="99.975" width="100"><path d="M6.726 41.262c3.096-3.026 6.665-.98 10 .327 2.06 1.245 7.959-2.651 2.781-1.364-4.796 3.297-5.012-6.818-2.265-5.889 1.06 3.376 5.298 5.959 8.815 4.116 3.545-.794-4.673-3.95-6.908-4.084-4.169-1.94 1.67-3.724 2.794-.604 1.982.748.184-5.786 2.452-2.32 1.045 4.405 1.83-1.99 3.378-2.7 5.637 1.335-5.43 5.992.446 7.324 3.756 3.097 1.599-1.637.865-3.581 1.434-1.015 1.271 3.977 4.044 2.809 2.313.727 7.176 4.414 8.177 1.348-1.042-2.196-4.246-6.114-4.868-2.086-4.298 2.57-2.493-2.922-.868-4.041-3.92-2.149-2.562 2.498-.078 3.61-2.902.489-3.332-3.997-3.358-5.064-4.606-2.23-9.017 1.141-13.3 2.192-4.758-1.303-1.567 7.391-6.84 6.786-3.176 3.44-1.788-3.91 1.38-3.144 1.99-.782 3.139-5.506-.236-2.485-.344 2.314-2.565 3.094-1.28.208-.378-3.067 7.093-3.696 1.662-4.031-2.143-1.553-2.111-6.535 1.579-3.936-1.798-1.683 2.598-9.204 4.15-4.072 1.401.407 1.14 3.729 3.134 1.778-2.546-1.42-.056-9.21 1.264-3.71 1.68 1.918-.134 4.92 3.583 4.858 1.52 1.305 5.617 3.229 2.883-.162.628-3.095-7.543-.238-3.612-3.074 1.811-2.902 4.315-.49 5.5-3.438 3.373-2.651-4.72-1.782-4.157 1.072-3.666 1.975-4.011-2.929.067-2.315 4.235-1.495-6.035-2.142-3.015-4.099 2.05 2.442 6.77.647 9.107 1.482-3.59-1.638-.251-6.176 2.093-3.309-3.954 2.294 2.17 7.039 3.281 6.252 4.517-3.256-4.625-1.63-1.739-5.794.224-3.996 4.315 2.008 4.35 3.664 2.798-2.369 2.148-5.417-1.568-5.393.36-3.152 3.863.233 5.383-.06-2.638 4.137 3.883-3.691 4.124-.195-2.335 2.215-3.39 5.856-6.238 8.108-1.446 1.54-3.435 11.475-1.282 6.15.354-2.57 4.418-10.703 6.046-9.456-2.65 2.708 2.65.802 2.775.89-.665-1.64-4.486-3.095-1.291-4.098-.018-3.355 3.64-3.82 2.247-.122-.546 2.545 2.014 5.32 1.752 1.321-.599-3.318 4.82-3.05 2.429.146-1.694 2.421.313 8.989 2.308 8.478.863-2.25-3.865-4.074-.602-6.308 2.395-4.209 1.33 8.742 3.37 3.7 1.964-3.632-1.536-5.53-3.132-7.215-.171-2.227-7.859-1.563-3.24-2.633 3.71-.31 7.247 2.17 8.434 5.826-2.169-4.192 8.924-3.392 3.203-1.158-3.727 2.353-.363 3.355 2.105 2.388 2.27-3.999 2.876 5.267 3.244-.262-.815-4.212 3.78-.03 1.513 2.05-1.94 4.442 2.452 5.05 5.652 4.068 3.068.572 7.11 3.61 5.995 6.799-1.7-3.505-5.768-4.49-9.42-4.317 2.843 2.58 3.956 5.653 2.768 9.383 1.894-.948.725-5.636.968-6.807 4.47 1.404 1.832 6.681.546 8.821 4.164-.14 2.421-5.85 3.92-6.547 1.414 3.817 5.686-5.46 5.504.146.76 2.775 1.699 6.496-.356 8.769 4.371-1.662 5.395 5.446 3.625 5.218-1.414-1.8-4.82-4.328-5.693-3.974-.946 1.65 5.095 2.974 5.4 5.787 2.648 5.075 2.654 11.299-.937 15.95 2.274 3.137-1.68 6.295-3.265 8.057-3.362-3.261 1.584-8.092 1.793-9.339-1.408 1.836-8.258 2.255-3.605-.694.1-2.933 2.44-4.207 4.647-4.39 1.996-4.004-1.101-8.51-4.851-10.088-3.617-2.396 1.732 5.696-2.834 2.393-2.298-1.112-2.943-5.388-6.286-3.025 2.948 2.205 4.412 5.651 8.311 5.86.812 2.228 4.688 3.38 4.842 4.794-2.556.436-5.834.477-7.498-1.426.473 4.7-4.475 6.659-6.728 9.798.86 5.75-4.863-3.003-1.603-4.511 2.884-1.57 8.36-1.951 6.261-6.764-1.623 5.301-8.851 3.511-11.044 7.585-.906-2.78 2.092-9.444 6.453-6.1 4.135-4.41-2.14-6.978-5.536-8.237-6.234-1.229 2.57 6.555-3 8.3-1.983.658-3.268 5.267-2.958.808-2.353-2.614-1.026-5.597 1.67-6.813-2.574-5.421-8.67-.521-9.287 4.125-.613 4.48-.62 7.578-.324 12.46.621 3.507-.171 4.185 4.806 8.064 3.344 1.444 6.646 2.4 9.99 3.392 3.363 2.031 7.223 3.001 9.303 6.633 4.353-.09-4.313 3.07-4.013-1.033-1.402-2.074-7.833-2.056-2.801-.737 2.815-.079 2.72 2.073-.08 1.041-4.477-1.68-9.422 1.952-13.821-.898-1.713-.293-4.544-3.948-2.786-.166 1.549 5.828 7.365.285 10.79 3.09 3.67 3.532 8.395-2.246 12.352.719 4.51 1.106-1.256.963-2.77.96-1.57 1.026-9.015 1.684-3.474 2.419 1.73.297 7.057-3.373 3.695.239-1.879 1.15-6.658 2.535-1.714 2.64.315 1.855-5.003-.045-6.016 2.646-4.374 2.65-9.148-.584-11.85-4.138 1.276 6.256-4.77 7.803-9.36 9.4-3.6.253 1.579-4.372 3.398-4.3 4.36-2.236 5.354-9.46 1.841-12.812-.2 2.736.813 6.598-1.295 9.081-1.562-.93 1.123-5.454-1.066-6.298-1.382 4.9-1.724-1.258-1.958-3.106-3.398-3.308-7.183 6.056-2.412 7.316 1.943.215 5.159 2.83 1.193 1.933-2.577-.605-6.344-3.565-5.82 1.086-.914 2.762 4.91 5.445-.154 4.327-2.59-1.382-1.818-7.095-5.47-3.665-3.244 1.716-8.793-1.366-8.418-4.428 2.202 2.65 9.782 2.072 8.508-1.008-3.678.313-7.659-1.622-11.014.828-1.205 1.905-3.79 1.986-1.258-.245 3.534-5.96 10.437-1.622 15.556-3.786 2.922-.123 3.157-5.762.096-2.183-4.23 4.168-8.736-2.25-13.233-.47-2.534 1.107-3.065 7.487-6.09 6.15 3.422-1.889 2.815-7.835 7.296-8.503 3.53.113 7.618 2.416 10.755-.322-.116-3.862-6.659-.282-10.024-.938-5.67-.18-5.856 7.224-10.393 7.965-3.362.047-4.388-6.764-.864-2.455 2.814.152 3.209-6.387 7.469-6.404 4.893-1.875 11.143-1.062 14.703-5.586 3.38-3.735 2.388-8.856 2.6-13.435-.555-3.743.43-9.559-3.564-11.492-3.808-1.356-6.88.932-6.853 4.68-2.244.952-6.251 2.42-8.11 1.918 1.394-3.378 3.232-6.36 7.346-6.447 5.375-2.561-4.539-3.852-5.899-.944-3.715 2.262-7.339 6.37-6.571 11.017 2.478 1.02 4.424 2.62 4.465 5.818 1.35 1.619 3.015 3.983-.44 2.057-5.742-.897-7.678-6.523-6.407-11.701.277-2.089 1.197-5.192-1.5-2.302-3.786 2.107-4.655 6.832-1.137 9.613.968 2.02 2.015 3.89-1.517 3.065-6.184-.371.926-8.544-3.486-8.562-.34 1.423-1.316 8.809-1.654 4.277.598-4.17 1.229-9.672 6.117-10.92 7.425-1.774-5.771-5.271-3.127.425.126 2.565-4.575 4.25-3.366.39-.27-1.475-1.632-3.294-.465-4.675zM46.898 10.88c-1.186.96-2.303 3.605-.696 1.19zm-12.896 8.574c-2.123 2.635 3.908 1.45 1.146-.967-.464-1.864-.509.523-1.146.967zm-8.98 6.212c-2.493-.657-6.82-.177-7.586.785.48 3.16 3.924-.865 5.452.228.639-.465 1.344-.872 2.135-1.013zm8.508-2.498c-5.25-.925-.077 2.656 2.136 2.973 4.03 3.853-.09-3.67-2.136-2.973zm21.2-3.579c-.173-2.283-3.32-3.975-1.958-.742 2.328 2.88.902 6.571 2.43 9.384.563-2.831.386-5.88-.472-8.642zm-5.132-.417c1.229 3.114-5.184 6.031-1.215 5.278 2.258-.48 3.445-4.898 3.028-6.295-1.377-.216-3.697 1.94-1.813 1.017zm-1.417-1c-2.718.699-4.386 5.08-5.193 7.724.434 2.573 1.726 9.192 3.572 8.277 1.999-4.377-5.213-8.103-.148-12.219 1.172-1.08 1.599-2.465 1.769-3.783zm1.89 6.818c-.018 1.677-.267 7.373 2.515 5.7-.017 2.188-3.77 5.942-3.19 6.723 2.32-2.17 5.141-4.45 3.443-7.426-.003-2.292-1.717-3.44-2.768-4.997zm11.275 1.756c-1.843 1.053-4.954 8.396-1.303 4.325 1.423-2.851 7.355-5.702 8.673-3.225-1.949.314-4.41 1.322-.938.999 2.64 1.224 4.677-7.155 4.905-1.92-1.248.89-2.835 4.44-.502 3.856.798-1.584 3.848-6.135 3.006-1.672-.241 2.743-2.67 5.873-3.308 7.764 3.501.036 7.47-3.157 4.01-6.369-.669-2.404 2.462-5.053-1.71-5.378-2.688-2.187-6.855-1.218-10.07.047-.959.456-1.87 1.003-2.763 1.573zm-.202 8.844c-2.72 3.751 2.226-.4 2.412-1.568 1.244-2.713 9.738-1.886 4.3.237-4.294 3.7 7.253-1.81 1.12-3.395-4.264-1.23-5.23 2.5-7.832 4.726zm7.629-18.566c-3.835.857 4.323 3.111 2.146.096-.701-.265-1.464.034-2.146-.096zm.81 2.498c-1.646 1.738-6.258-1.095-4.634 1.382 1.624-.097 3.203-.622 4.634-1.382zm18.5 11.14c-4.212 1.26-5.598 5.975-9.71 7.813 4.308-.228 8.995-3.368 10.587-7.476.386-1.801.08-1.378-.878-.337zm2.97 23.833c-.704 2.245-.48 3.582.271.588.656-.725-.07-.871-.27-.588zm-8.237-3.848c.19.083-.083-.19 0 0zm-.81 1.417c-.929 1.648-.781 3.302-.014.665zM65.127 74.007c-2.298-2.048-7.076 1.3-2.626 2.316 2.354.158 6.167-.448 7.732.004-1.218-1.724-3.423-1.408-5.106-2.32zm11.275 8.575c.632-.851-7.633 1.832-2.775.854.94-.234 1.874-.497 2.775-.854zm-7.9 2.228c-2.282-1.612-7.568-1.307-8.733-1.198 2.48 2.808 6.177 6.275 10.226 4.606 1.27.083-1.404-2.792-1.492-3.408z" fill="#eceff1"/></svg>